Coordinates
version=1
nRows=17
nColumns=23
inDegrees=yes

Units are S.I. units (second, meters, Newtons, ...)
If the header above contains a line with 'inDegrees', this indicates whether rotational values are in degrees (yes) or radians (no).

endheader
time	pelvis_tilt	pelvis_list	pelvis_rotation	pelvis_tx	pelvis_ty	pelvis_tz	hip_flexion_r	hip_adduction_r	hip_rotation_r	knee_angle_r	knee_angle_r_beta	ankle_angle_r	subtalar_angle_r	mtp_angle_r	hip_flexion_l	hip_adduction_l	hip_rotation_l	knee_angle_l	knee_angle_l_beta	ankle_angle_l	subtalar_angle_l	mtp_angle_l
      7.50000000	     -5.43179420	      7.91366911	      5.01464534	      2.34526706	      0.98647548	      1.01193217	      4.19426886	     -8.29080237	     -2.94545404	     95.40385782	      1.66511144	    -17.54637023	    -23.51996456	      0.00000000	     33.95772662	     11.21620114	     -8.96446012	     40.55601233	      0.70783595	      9.41793194	     -5.52622749	      0.00000000
      7.50666667	     -5.40374289	      7.93174859	      5.44996938	      2.34271555	      0.98136933	      1.01222851	      6.20462911	     -8.50125784	     -2.83327385	     98.28370789	      1.71537430	    -16.89165987	    -23.62118593	      0.00000000	     34.05535962	     11.24242187	     -8.71030184	     43.35618249	      0.75670814	     11.03373192	     -5.59872606	      0.00000000
      7.51333333	     -5.59488431	      7.84079809	      5.81662914	      2.33998538	      0.97645207	      1.01261207	      8.60828443	     -8.64021824	     -2.62236812	    100.99460267	      1.76268834	    -16.14284665	    -23.51641998	      0.00000000	     34.21950347	     11.10817586	     -8.50857320	     45.90870251	      0.80125801	     12.94836451	     -5.13864172	      0.00000000
      7.52000000	     -5.58557345	      7.77481104	      6.11096075	      2.33738839	      0.97244789	      1.01300475	     10.85014435	     -8.79561002	     -2.35978634	    103.39054468	      1.80450542	    -15.33992673	    -23.39205373	      0.00000000	     33.89960764	     10.95874385	     -8.31134407	     48.04015290	      0.83845884	     15.05625055	     -4.46456532	      0.00000000
      7.52666667	     -5.31789941	      7.69949687	      6.41782213	      2.33499863	      0.96959314	      1.01324425	     12.81233098	     -8.95095131	     -2.16749213	    105.40335975	      1.83963567	    -14.61232031	    -23.23523924	      0.00000000	     33.01658947	     10.88712553	     -7.85475936	     49.69947773	      0.86741952	     17.12206935	     -3.99293236	      0.00000000
      7.53333333	     -5.38577975	      7.54461178	      6.55513619	      2.33262908	      0.96681517	      1.01369428	     15.29457150	     -9.00593445	     -1.77643499	    107.22177086	      1.87137293	    -13.65983114	    -22.82499764	      0.00000000	     32.33413742	     10.53908493	     -7.77299406	     51.11475226	      0.89212072	     19.34898417	     -2.71195237	      0.00000000
      7.54000000	     -5.17222912	      7.41356550	      6.62777790	      2.33054115	      0.96523140	      1.01408466	     17.45359999	     -9.04140270	     -1.39390663	    108.63059128	      1.89596149	    -12.80624291	    -22.53385378	      0.00000000	     31.08889859	     10.22720978	     -7.58856429	     52.07229796	      0.90883305	     21.36206503	     -1.68886724	      0.00000000
      7.54666667	     -4.89750069	      7.25219315	      6.60290584	      2.32875517	      0.96455133	      1.01441800	     19.54276854	     -8.98334484	     -0.96964551	    109.65793729	      1.91389206	    -12.01432826	    -22.24510082	      0.00000000	     29.54978989	      9.87981802	     -7.38736165	     52.61768392	      0.91835183	     23.26213951	     -0.74528434	      0.00000000
      7.55333333	     -4.64434078	      7.05822038	      6.52988240	      2.32726796	      0.96456445	      1.01471010	     21.62632459	     -8.86419185	     -0.56911538	    110.32991696	      1.92562031	    -11.13509027	    -21.86228502	      0.00000000	     27.83331328	      9.48848402	     -7.20811376	     52.79549026	      0.92145514	     24.89329319	      0.17978574	      0.00000000
      7.56000000	     -4.41075486	      6.82263367	      6.50145386	      2.32607167	      0.96542429	      1.01474407	     23.63042217	     -8.69262085	     -0.27096568	    110.58759146	      1.93011758	    -10.54188534	    -21.82462700	      0.00000000	     25.92530569	      9.24569310	     -6.67442223	     52.51877538	      0.91662555	     25.98033139	      0.36937210	      0.00000000
      7.56666667	     -4.31513453	      6.54686097	      6.38953960	      2.32521879	      0.96678092	      1.01484813	     25.72583700	     -8.44775374	      0.00238041	    110.49906451	      1.92857250	     -9.89558912	    -21.68772085	      0.00000000	     24.01411897	      8.91304120	     -6.26615984	     51.95178042	      0.90672962	     26.92221244	      0.65436863	      0.00000000
      7.57333333	     -3.98215210	      6.27593189	      5.78712776	      2.32470349	      0.96871054	      1.01575476	     27.60834172	     -7.87550032	      0.63211173	    110.17509191	      1.92291811	     -8.63089926	    -20.75324385	      0.00000000	     21.74945889	      8.08223049	     -6.90439610	     51.23728531	      0.89425933	     28.03068926	      2.21519457	      0.00000000
      7.58000000	     -3.92809948	      5.86422568	      5.41471526	      2.32446578	      0.97118571	      1.01619122	     29.58415394	     -7.24347364	      0.93544559	    109.41782574	      1.90970132	     -7.85930607	    -20.56509513	      0.00000000	     19.62648468	      7.50727484	     -6.81420811	     50.11614520	      0.87469174	     28.47878155	      2.58818994	      0.00000000
      7.58666667	     -3.51752699	      5.24690982	      5.06163823	      2.32492438	      0.97482543	      1.01666030	     30.90622514	     -6.36092835	      0.93287417	    108.18094949	      1.88811376	     -7.12890246	    -20.27691108	      0.00000000	     16.97026762	      6.59735697	     -6.89811970	     48.73918141	      0.85065919	     28.75663223	      3.64410971	      0.00000000
      7.59333333	     -3.61063660	      4.75287080	      4.55222383	      2.32532859	      0.97814088	      1.01724045	     32.75857730	     -5.50947201	      1.16127397	    106.78759916	      1.86379521	     -6.36241157	    -19.92732089	      0.00000000	     14.79380536	      5.97994024	     -6.93558951	     47.13094560	      0.82259018	     28.79133716	      3.91043819	      0.00000000
      7.60000000	     -3.31814943	      4.00533191	      4.15894381	      2.32643574	      0.98256341	      1.01770519	     33.86730404	     -4.44743663	      0.98406604	    104.91625552	      1.83113410	     -5.60209207	    -19.61846760	      0.00000000	     12.10561802	      5.03709120	     -7.01418042	     45.35103007	      0.79152479	     28.71937551	      4.80172218	      0.00000000
      7.60666667	     -3.64637184	      3.38986413	      3.56408948	      2.32745036	      0.98636057	      1.01847464	     35.64335592	     -3.38694068	      1.08089749	    102.93377039	      1.79653320	     -4.83544073	    -19.25387841	      0.00000000	     10.07900483	      4.32583735	     -7.24203486	     43.46899250	      0.75867704	     28.37282659	      5.09733688	      0.00000000
